<svg xmlns="http://www.w3.org/2000/svg" version="1.1" xmlns:xlink="http://www.w3.org/1999/xlink" width="512" height="512" x="0" y="0" viewBox="0 0 512 512" style="enable-background:new 0 0 512 512" xml:space="preserve" class=""><g><circle cx="256" cy="256" r="256" fill="#5c5560" data-original="#5c5560" class=""></circle><path fill="#eeeeee" d="M483.394 120.183v253.524a255.74 255.74 0 0 1-31.159 46.697H59.771a255.515 255.515 0 0 1-31.169-46.717V120.183c0-15.778 12.79-28.578 28.568-28.578h397.657c15.777 0 28.567 12.8 28.567 28.578z" data-original="#eeeeee" class=""></path><path fill="#e0e0e0" d="m256.006 297.838 175.61 122.561 18.99-49.186 4.314-227.829-196.76 123.408z" data-original="#e0e0e0"></path><path fill="#fc3f1d" d="M483.394 120.183v253.524a255.74 255.74 0 0 1-31.159 46.697h-20.616V175.26L256.003 297.837 80.387 175.26v245.143H59.771a255.515 255.515 0 0 1-31.169-46.717V120.183c0-15.778 12.79-28.578 28.568-28.578h2.894l195.939 136.756L451.942 91.605h2.884c15.778 0 28.568 12.8 28.568 28.578z" data-original="#fc3f1d" class=""></path></g></svg>